<svg xmlns="http://www.w3.org/2000/svg" viewBox="0 0 403.20001 89.400002">
    <style>
        .title,
        .subtitle {
            fill: #FFF;
            opacity: .8;
        }
    </style>
  <path class="title" d="M22.05 53.2l-18.075-.077V8.127h36.6v10.2H14.11l.183.475c.1.26.182 5.798.182 12.305v11.83l7.875-.08 7.875-.08v-17.25h10.35V53.092l-.225.093c-.124.05-8.36.058-18.3.015zm84.65-.048c-.07-.068-.125-10.227-.125-22.575V8.127h10.2v20.1l.225.006c.124.003 3.697-3.54 7.942-7.875l7.716-7.88.008-2.175.008-2.175h10.2v45h-10.2v-24.3h-.217c-.12 0-3.695 3.543-7.946 7.875l-7.73 7.875-.003 4.26-.004 4.262-4.976.09c-2.736.047-5.03.03-5.1-.037zm42.6 0c-.07-.068-.125-10.227-.125-22.575V8.127h28.358l4.12 4.13 4.122 4.128v28.5l-4.135 4.127-4.135 4.127-14.04.068c-7.722.038-14.096.013-14.165-.056zm26.275-22.515v-12.29l-7.944-.085-7.943-.085-.08 12.25c-.045 6.738-.026 12.307.043 12.375.07.07 3.68.125 8.025.125h7.9v-12.29zM192.2 53.152c-.07-.068-.125-10.227-.125-22.575V8.127h36.3v44.991l-18.025.08c-9.914.043-18.08.023-18.15-.046zm26.21-22.59l.083-12.215-7.984-.085c-4.393-.047-8.042-.028-8.11.04-.07.07-.125 5.64-.125 12.38v12.255l8.025-.08 8.025-.08.084-12.215zm16.94 22.62l-.675-.096v-10.16h26.4v-7.2h-26.4V8.124L252.9 8.2l18.225.077v9.9l-13.05.066-13.05.066v7.067l13.05.15 13.05.15.078 13.725.078 13.725-.227.003-17.628.075c-9.57.04-17.704.03-18.075-.024zm60.15.013l-4.725-.083V18.327h-13.5v-10.2h36.45l-.045 5.025-.046 5.025-6.404.058-6.405.058-.077 17.33-.078 17.33-.222.162c-.123.09-2.35.125-4.948.08zm24.8-.043c-.07-.068-.125-10.227-.125-22.575V8.127h36.6v45h-10.5v-8.7h-15.9V53.1l-4.976.088c-2.737.05-5.032.033-5.1-.036zm25.975-26.825c0-4.345-.056-7.956-.125-8.025-.068-.068-3.646-.087-7.95-.04l-7.825.085v15.88h15.9v-7.9zm21.375 26.868l-4.875-.083V8.127h10.2v20.1h.234c.127 0 3.772-3.555 8.1-7.9l7.865-7.9v-4.3h10.05l-.15 22.575-.15 22.575-.225-.075c-.124-.04-2.317-.075-4.875-.075h-4.65v-24.3h-.227c-.125 0-3.77 3.545-8.1 7.877l-7.873 7.877v8.512l-.225.093c-.124.05-2.42.055-5.1.01zM46.575 30.627v-22.5h10.2v35.1H72.61l.188-.487c.102-.267.182-7.996.177-17.175-.005-9.178-.007-16.856-.005-17.063l.005-.375h10.2v45h-36.6v-22.5zm42.9 0v-22.5h10.2v45h-10.2z"/>
  <path class="subtitle" d="M235.3 82.95V81.3h-10.5V64.8h3.6v12.6h6V64.8h3.6v12.6h1.2v7.2h-3.9v-1.65zm46.8 0V81.3h-10.5V64.8h3.6v12.6h6V64.8h3.6v12.6h1.2v7.2h-3.9v-1.65zm-214.5-9.9V64.8h13.2v16.5h-3.6V78h-6v3.3h-3.6v-8.25zm9.6-1.5V68.7h-6v5.7h6v-2.85zm6 7.8V77.4h9.6V75h-9.6V64.8h13.2v3.9h-9.6v2.4h9.6v10.2H83.2v-1.95zm15.6-6.3V64.8H112v16.5H98.8v-8.25zm9.6 0V68.7h-6v8.7h6v-4.35zm6 0V64.8h13.2v3.9H118v8.7h9.6v3.9h-13.2v-8.25zm15.6 0V64.8h3.6v16.5H130v-8.25zm6.3 0V64.8h13.2v16.5h-3.6V78h-6v3.3h-3.6v-8.25zm9.6-1.5V68.7h-6v5.7h6v-2.85zm6 1.5V64.8h13.2v3.9h-9.6v8.7h9.6v3.9h-13.2v-8.25zm15.6 0V64.8h3.6v16.5h-3.6v-8.25zm6.3 0V64.8H187v16.5h-13.2v-8.25zm9.6 0V68.7h-6v8.7h6v-4.35zm6 0V64.8h3.6l.013 3.825.012 3.825 2.988-3.1L199 66.254V64.8h3.6v16.5H199v-9.14l-3 2.99-3 2.99v3.16h-3.6v-8.25zm19.8 0V64.8h13.2v3.9h-9.6v8.7h9.6v3.9h-13.2v-8.25zm31.2 0V64.8h3.6v12.6h9.6v3.9h-13.2v-8.25zM260.8 75v-6.3H256v-3.9h13.2v3.9h-4.8v12.6h-3.6V75zm26.4 5.183v-1.118l2.017-2.032L291.234 75H287.2V64.8h13.2v16.5h-3.6v-5.84l-2.93 2.92-2.93 2.92h-3.74v-1.117zm9.6-10.283v-1.2h-6v2.4h6v-1.2zm6 3.15V64.8H316v16.5h-3.6V78h-6v3.3h-3.6v-8.25zm9.6-1.5V68.7h-6v5.7h6v-2.85zm6 1.5V64.8h3.6v12.6h9.6v3.9h-13.2v-8.25z"/>
</svg>
